<svg width="15" height="17" viewBox="0 0 15 17" fill="none" xmlns="http://www.w3.org/2000/svg">
<path d="M2.10684 0.574219H12.2197C13.0625 0.574219 13.752 1.26373 13.752 2.10648V3.79196C13.752 4.40486 13.3689 5.17099 12.9859 5.55406L9.69152 8.46534C9.23184 8.8484 8.92539 9.61453 8.92539 10.2274V13.5218C8.92539 13.9815 8.61894 14.5944 8.23588 14.8242L7.16329 15.5137C6.16733 16.1266 4.78829 15.4371 4.78829 14.2113V10.1508C4.78829 9.61453 4.48184 8.92502 4.17539 8.54195L1.2641 5.47744C0.881037 5.09438 0.574585 4.40486 0.574585 3.94519V2.18309C0.574585 1.26373 1.2641 0.574219 2.10684 0.574219Z" stroke="#3D3D3D" stroke-width="1.14919" stroke-miterlimit="10" stroke-linecap="round" stroke-linejoin="round"/>
<path opacity="0.4" d="M6.34367 0.574219L2.56665 6.62664" stroke="#3D3D3D" stroke-width="1.14919" stroke-miterlimit="10" stroke-linecap="round" stroke-linejoin="round"/>
</svg>
