<svg width="19" height="20" viewBox="0 0 19 20" fill="none" xmlns="http://www.w3.org/2000/svg">
<path d="M13.2999 0.210481C12.8899 -0.199519 12.1799 0.0804814 12.1799 0.650481V4.14048C12.1799 5.60048 13.4199 6.81048 14.9299 6.81048C15.8799 6.82048 17.1999 6.82048 18.3299 6.82048C18.8999 6.82048 19.1999 6.15048 18.7999 5.75048C17.3599 4.30048 14.7799 1.69048 13.2999 0.210481Z" fill="white"/>
<path d="M18 8.19H15.11C12.74 8.19 10.81 6.26 10.81 3.89V1C10.81 0.45 10.36 0 9.81 0H5.57C2.49 0 0 2 0 5.57V14.43C0 18 2.49 20 5.57 20H13.43C16.51 20 19 18 19 14.43V9.19C19 8.64 18.55 8.19 18 8.19ZM9 15.75H5C4.59 15.75 4.25 15.41 4.25 15C4.25 14.59 4.59 14.25 5 14.25H9C9.41 14.25 9.75 14.59 9.75 15C9.75 15.41 9.41 15.75 9 15.75ZM11 11.75H5C4.59 11.75 4.25 11.41 4.25 11C4.25 10.59 4.59 10.25 5 10.25H11C11.41 10.25 11.75 10.59 11.75 11C11.75 11.41 11.41 11.75 11 11.75Z" fill="white"/>
</svg>
