<svg width="21" height="21" viewBox="0 0 21 21" fill="none" xmlns="http://www.w3.org/2000/svg">
<path d="M17.4692 5.3379C18.9432 5.3379 20.1381 4.14297 20.1381 2.66895C20.1381 1.19493 18.9432 0 17.4692 0C15.9951 0 14.8002 1.19493 14.8002 2.66895C14.8002 4.14297 15.9951 5.3379 17.4692 5.3379Z" fill="white"/>
<path d="M17.4695 6.55071C15.3246 6.55071 13.5874 4.81346 13.5874 2.66859C13.5874 1.76806 12.9912 0.727539 12.0907 0.727539H4.85264C2.17398 0.727539 0 2.89182 0 5.56077V11.3645V12.3351C0 15.004 2.17398 17.1683 4.85264 17.1683H6.30843C6.57047 17.1683 6.91986 17.343 7.08485 17.5565L8.54064 19.4878C9.18119 20.3419 10.2294 20.3419 10.8699 19.4878L12.3257 17.5565C12.5101 17.3139 12.8013 17.1683 13.1021 17.1683H14.5579C17.2366 17.1683 19.4106 15.004 19.4106 12.3351V8.0474C19.4106 7.14687 18.37 6.55071 17.4695 6.55071Z" fill="white"/>
<path d="M9.70472 10.4332C9.16122 10.4332 8.73419 9.99651 8.73419 9.46272C8.73419 8.92892 9.17093 8.49219 9.70472 8.49219C10.2385 8.49219 10.6752 8.92892 10.6752 9.46272C10.6752 9.99651 10.2482 10.4332 9.70472 10.4332Z" fill="#807FD8"/>
<path d="M13.587 10.4332C13.0435 10.4332 12.6165 9.99651 12.6165 9.46272C12.6165 8.92892 13.0532 8.49219 13.587 8.49219C14.1208 8.49219 14.5575 8.92892 14.5575 9.46272C14.5575 9.99651 14.1305 10.4332 13.587 10.4332Z" fill="#807FD8"/>
<path d="M5.82319 10.4332C5.27969 10.4332 4.85266 9.99651 4.85266 9.46272C4.85266 8.92892 5.2894 8.49219 5.82319 8.49219C6.35698 8.49219 6.79372 8.92892 6.79372 9.46272C6.79372 9.99651 6.36668 10.4332 5.82319 10.4332Z" fill="#807FD8"/>
</svg>
