<svg width="21" height="17" viewBox="0 0 21 17" fill="none" xmlns="http://www.w3.org/2000/svg">
<path d="M17.46 3.12C17.03 0.95 15.42 0 13.18 0H4.4C1.76 0 0 1.32 0 4.4V9.54997C0 11.77 0.91 13.07 2.41 13.63C2.63 13.71 2.87 13.78 3.12 13.82C3.52 13.91 3.95 13.95 4.4 13.95H13.19C15.83 13.95 17.59 12.63 17.59 9.54997V4.4C17.59 3.93 17.55 3.51 17.46 3.12ZM3.82 8.47997C3.82 8.88997 3.48 9.22997 3.07 9.22997C2.66 9.22997 2.32 8.88997 2.32 8.47997V5.48C2.32 5.07 2.66 4.73 3.07 4.73C3.48 4.73 3.82 5.07 3.82 5.48V8.47997ZM8.79004 9.61997C7.33 9.61997 6.15 8.43997 6.15 6.97997C6.15 5.52 7.33 4.34 8.79004 4.34C10.25 4.34 11.43 5.52 11.43 6.97997C11.43 8.43997 10.25 9.61997 8.79004 9.61997ZM15.25 8.47997C15.25 8.88997 14.91 9.22997 14.5 9.22997C14.09 9.22997 13.75 8.88997 13.75 8.47997V5.48C13.75 5.07 14.09 4.73 14.5 4.73C14.91 4.73 15.25 5.07 15.25 5.48V8.47997Z" fill="white"/>
<path d="M20.59 7.40077V12.5508C20.59 15.6308 18.83 16.9608 16.18 16.9608H7.40005C6.65005 16.9608 5.98005 16.8508 5.40005 16.6308C4.93005 16.4608 4.52005 16.2108 4.19005 15.8908C4.01005 15.7208 4.15005 15.4508 4.40005 15.4508H13.18C16.88 15.4508 19.08 13.2508 19.08 9.56077V4.40075C19.08 4.16075 19.35 4.01075 19.52 4.19075C20.2 4.91075 20.59 5.96075 20.59 7.40077Z" fill="white"/>
</svg>
