<svg width="11" height="9" viewBox="0 0 11 9" fill="none" xmlns="http://www.w3.org/2000/svg">
<path opacity="0.4" d="M5.61975 2.98914H2.75018" stroke="#434343" stroke-width="0.717391" stroke-linecap="round" stroke-linejoin="round"/>
<path d="M9.92437 3.93131V4.91652C9.92437 5.17957 9.71394 5.39479 9.44611 5.40435H8.50872C7.9922 5.40435 7.51872 5.02652 7.47568 4.51C7.44698 4.2087 7.56176 3.92653 7.76263 3.73044C7.93959 3.5487 8.1835 3.44348 8.45133 3.44348H9.44611C9.71394 3.45305 9.92437 3.66826 9.92437 3.93131Z" stroke="#434343" stroke-width="0.717391" stroke-linecap="round" stroke-linejoin="round"/>
<path d="M7.76218 3.73038C7.56131 3.92647 7.44653 4.20864 7.47522 4.50995C7.51827 5.02647 7.99175 5.40429 8.50827 5.40429H9.44566V6.09777C9.44566 7.53256 8.48914 8.48908 7.05436 8.48908H2.75001C1.31523 8.48908 0.358704 7.53256 0.358704 6.09777V2.74995C0.358704 1.44908 1.14305 0.540382 2.36262 0.387338C2.48696 0.368208 2.61609 0.358643 2.75001 0.358643H7.05436C7.1787 0.358643 7.29827 0.36342 7.41305 0.382551C8.64696 0.526029 9.44566 1.43951 9.44566 2.74995V3.44343H8.45088C8.18305 3.44343 7.93914 3.54864 7.76218 3.73038Z" stroke="#434343" stroke-width="0.717391" stroke-linecap="round" stroke-linejoin="round"/>
</svg>
